<svg xmlns="http://www.w3.org/2000/svg" viewBox="0 0 800 600" width="800" height="600">
  <!-- Background -->
  <rect width="800" height="600" fill="#000000"/>
  
  <!-- 3D Wireframe Grid -->
  <g stroke="#ffffff" stroke-width="1" fill="none" opacity="0.3">
    <!-- Horizontal Grid Lines -->
    <line x1="0" y1="150" x2="800" y2="150"/>
    <line x1="0" y1="200" x2="800" y2="200"/>
    <line x1="0" y1="250" x2="800" y2="250"/>
    <line x1="0" y1="300" x2="800" y2="300"/>
    <line x1="0" y1="350" x2="800" y2="350"/>
    <line x1="0" y1="400" x2="800" y2="400"/>
    <line x1="0" y1="450" x2="800" y2="450"/>
    <line x1="0" y1="500" x2="800" y2="500"/>
    <line x1="0" y1="550" x2="800" y2="550"/>
    
    <!-- Vertical Grid Lines -->
    <line x1="80" y1="150" x2="80" y2="600"/>
    <line x1="160" y1="150" x2="160" y2="600"/>
    <line x1="240" y1="150" x2="240" y2="600"/>
    <line x1="320" y1="150" x2="320" y2="600"/>
    <line x1="400" y1="150" x2="400" y2="600"/>
    <line x1="480" y1="150" x2="480" y2="600"/>
    <line x1="560" y1="150" x2="560" y2="600"/>
    <line x1="640" y1="150" x2="640" y2="600"/>
    <line x1="720" y1="150" x2="720" y2="600"/>
    
    <!-- 3D Terrain Contours -->
    <path d="M 0 150 Q 200 130 400 110 Q 600 90 800 70" stroke="#ffffff" stroke-width="2" opacity="0.6"/>
    <path d="M 0 200 Q 200 180 400 160 Q 600 140 800 120" stroke="#ffffff" stroke-width="2" opacity="0.5"/>
    <path d="M 0 250 Q 200 230 400 210 Q 600 190 800 170" stroke="#ffffff" stroke-width="2" opacity="0.4"/>
    <path d="M 0 300 Q 200 280 400 260 Q 600 240 800 220" stroke="#ffffff" stroke-width="2" opacity="0.3"/>
    <path d="M 0 350 Q 200 330 400 310 Q 600 290 800 270" stroke="#ffffff" stroke-width="2" opacity="0.2"/>
    
    <!-- Mountain Peaks -->
    <path d="M 160 150 Q 200 100 240 150 Q 280 130 320 150" stroke="#ffffff" stroke-width="3" opacity="0.7"/>
    <path d="M 560 150 Q 600 80 640 150 Q 680 130 720 150" stroke="#ffffff" stroke-width="3" opacity="0.7"/>
    
    <!-- Valley -->
    <path d="M 400 150 Q 440 170 480 150 Q 520 190 560 150" stroke="#ffffff" stroke-width="2" opacity="0.5"/>
  </g>
  
  <!-- Floating Elements -->
  <g opacity="0.2">
    <circle cx="120" cy="120" r="3" fill="#ffffff"/>
    <circle cx="280" cy="100" r="2" fill="#ffffff"/>
    <circle cx="440" cy="80" r="2" fill="#ffffff"/>
    <circle cx="600" cy="60" r="3" fill="#ffffff"/>
    <circle cx="760" cy="40" r="2" fill="#ffffff"/>
  </g>
</svg>
